<?xml version="1.0" standalone="no"?>
<!DOCTYPE svg PUBLIC "-//W3C//DTD SVG 20010904//EN"
 "http://www.w3.org/TR/2001/REC-SVG-20010904/DTD/svg10.dtd">
<svg version="1.0" xmlns="http://www.w3.org/2000/svg"
 width="253.000000pt" height="317.000000pt" viewBox="0 0 253.000000 317.000000"
 preserveAspectRatio="xMidYMid meet">
<metadata>
Created by potrace 1.16, written by Peter Selinger 2001-2019
</metadata>
<g transform="translate(0.000000,317.000000) scale(0.100000,-0.100000)"
fill="#000000" stroke="none">
<path d="M1343 3004 c-40 -20 -41 -27 -6 -40 21 -7 13 -9 -43 -9 -58 0 -77 -5
-117 -28 -167 -98 -161 -335 11 -421 20 -10 32 -24 32 -36 0 -19 -7 -20 -185
-20 l-185 0 0 -55 0 -55 183 -2 182 -3 -1 -130 c-2 -128 -21 -460 -29 -501 -3
-12 -18 -27 -36 -34 -43 -18 -87 -56 -105 -91 l-15 -30 28 7 c15 4 38 11 51
15 30 12 79 12 66 1 -5 -5 -39 -17 -76 -26 -107 -28 -191 -93 -213 -164 -7
-23 -7 -23 25 -7 29 15 254 96 256 92 7 -13 -39 -432 -51 -463 -32 -84 -162
-176 -270 -191 -38 -5 -50 -3 -60 11 -11 14 -14 14 -25 1 -7 -8 -16 -12 -21
-9 -5 3 10 29 34 57 25 29 49 62 56 74 13 26 15 96 2 91 -28 -10 -136 -105
-163 -143 l-31 -44 -41 22 c-22 12 -69 49 -104 82 l-65 60 74 5 74 5 -60 30
c-37 18 -90 59 -136 105 -84 83 -127 159 -153 269 -8 35 -17 65 -20 68 -2 3
-16 -32 -30 -77 -32 -101 -43 -224 -26 -305 12 -62 65 -181 99 -225 l19 -24
13 27 c7 15 15 27 18 27 3 0 16 -19 29 -43 50 -95 165 -198 290 -261 42 -21
52 -31 52 -51 0 -35 23 -86 49 -109 l21 -19 1 49 c0 27 4 58 9 69 11 25 11 20
13 -85 2 -102 29 -167 85 -205 20 -14 40 -25 43 -25 4 0 0 19 -8 43 -14 39
-35 247 -27 256 3 3 44 -2 93 -11 121 -22 211 -66 287 -142 l61 -61 38 44 c80
91 185 140 364 170 66 12 146 30 178 41 31 11 58 20 59 20 1 0 -1 -21 -4 -46
l-5 -46 33 17 c49 25 126 101 141 138 7 18 39 60 71 95 32 34 71 85 87 113
l28 50 20 -27 20 -27 29 49 c99 162 117 325 57 507 -26 79 -43 87 -43 22 0
-45 -61 -162 -119 -230 -58 -68 -114 -114 -183 -153 -27 -15 -48 -30 -48 -33
0 -10 50 -18 87 -14 18 2 33 0 33 -3 -1 -4 -35 -32 -78 -63 -189 -138 -329
-170 -453 -102 -81 44 -143 138 -159 242 -12 72 -50 537 -50 602 l0 49 38 0
c44 0 120 36 139 66 14 21 13 22 -66 29 -43 4 -89 4 -101 0 -16 -5 -21 -3 -18
6 4 11 33 14 129 14 143 0 185 11 229 61 27 32 42 73 21 60 -4 -3 -65 -12
-133 -20 -131 -15 -187 -32 -225 -68 -18 -17 -24 -18 -28 -7 -3 8 -6 113 -7
234 l-3 220 183 3 182 2 0 55 0 55 -180 0 -180 0 1 23 c0 15 15 31 47 52 63
41 102 115 102 197 0 70 -25 126 -79 177 -40 39 -37 37 68 -31 40 -26 79 -48
85 -48 6 0 22 -3 34 -7 24 -6 24 -5 9 24 -73 140 -208 214 -304 167z m27 -153
c38 -20 80 -88 80 -129 0 -35 -38 -110 -61 -123 -16 -8 -19 -6 -19 10 0 15 -9
22 -35 27 -54 10 -105 -3 -105 -26 0 -31 -26 -23 -56 15 -101 133 49 305 196
226z"/>
<path d="M1597 2944 c23 -27 63 -89 90 -138 27 -50 64 -101 82 -115 l33 -25
-7 59 c-11 100 -35 163 -80 212 -38 43 -45 46 -100 51 l-59 5 41 -49z"/>
<path d="M1795 2844 c15 -61 25 -142 25 -206 0 -64 23 -148 40 -148 4 0 18 31
30 70 48 149 15 276 -79 305 -22 7 -23 5 -16 -21z"/>
<path d="M1937 2660 c-2 -8 -10 -37 -16 -64 -7 -28 -25 -79 -41 -115 -38 -88
-54 -155 -43 -176 8 -14 18 -8 62 41 80 87 111 163 97 237 -8 40 -52 99 -59
77z"/>
<path d="M1960 2385 c-12 -19 -58 -67 -102 -107 -73 -66 -124 -136 -116 -158
6 -17 165 67 206 108 45 45 67 105 57 153 -10 42 -21 43 -45 4z"/>
<path d="M1885 2154 c-22 -13 -82 -40 -134 -60 -67 -26 -105 -48 -133 -76 -22
-22 -38 -42 -35 -44 9 -10 170 18 223 37 62 23 110 73 120 124 3 20 5 38 3 40
-2 2 -22 -7 -44 -21z"/>
<path d="M978 1380 c-42 -15 -97 -42 -122 -59 -48 -34 -96 -103 -96 -140 l0
-22 28 19 c15 11 72 42 128 70 90 45 154 96 154 122 0 5 3 15 6 24 9 22 -8 20
-98 -14z"/>
<path d="M866 1199 c-103 -53 -178 -127 -194 -191 -20 -80 -17 -85 31 -41 23
21 77 63 119 92 43 29 86 67 97 85 17 27 38 97 29 96 -2 -1 -39 -19 -82 -41z"/>
<path d="M2055 571 c-22 -22 -78 -60 -125 -84 -78 -41 -130 -89 -130 -119 0
-12 66 -3 140 20 93 28 170 120 170 205 0 26 -11 21 -55 -22z"/>
<path d="M880 413 c0 -50 30 -157 56 -201 29 -50 86 -90 139 -99 l37 -6 -36
50 c-19 27 -51 87 -71 134 -39 93 -48 107 -85 132 -33 23 -40 22 -40 -10z"/>
<path d="M1950 369 c-25 -9 -91 -22 -147 -27 -104 -11 -155 -29 -172 -61 -12
-21 -3 -24 105 -36 107 -12 211 32 250 107 9 16 14 31 12 32 -2 2 -23 -5 -48
-15z"/>
<path d="M1030 285 c0 -3 11 -28 25 -55 60 -119 176 -182 282 -154 20 6 16 10
-35 43 -31 21 -84 62 -117 93 -33 30 -70 60 -82 66 -22 12 -73 16 -73 7z"/>
<path d="M1460 242 c-19 -9 -35 -21 -34 -27 0 -5 34 -23 75 -39 123 -49 236
-40 293 23 l19 21 -41 0 c-22 0 -86 9 -142 20 -123 24 -126 24 -170 2z"/>
<path d="M1230 229 l-25 -10 30 -25 c128 -105 236 -135 330 -92 34 15 32 25
-7 33 -18 4 -77 27 -131 52 -104 48 -157 59 -197 42z"/>
</g>
</svg>
